PathFileType	4	(X/Y/Z)	TVC_41_BWA_04_walk_RCNL2025.trc
DataRate	CameraRate	NumFrames	NumMarkers	Units	OrigDataRate	OrigDataStartFrame	OrigNumFrames
100	100	10	27	mm	100	70	553
Frame#	Time	R_Shoulder			L_Shoulder			C7			J_Notch			R_Elbow			L_Elbow			R_Wrist			L_Wrist			R_Asis			L_Asis			R_Psis			L_Psis			Sacral			Thoracic			Sternum			R_Thigh_Lateral			R_Knee_Lateral			R_Shank_Lateral			R_Ankle_Lateral			R_Heel			R_Toe			L_Thigh_Lateral			L_Knee_Lateral			L_Shank_Lateral			L_Ankle_Lateral			L_Heel			L_Toe		
		X1	Y1	Z1	X2	Y2	Z2	X3	Y3	Z3	X4	Y4	Z4	X5	Y5	Z5	X6	Y6	Z6	X7	Y7	Z7	X8	Y8	Z8	X9	Y9	Z9	X10	Y10	Z10	X11	Y11	Z11	X12	Y12	Z12	X13	Y13	Z13	X14	Y14	Z14	X15	Y15	Z15	X16	Y16	Z16	X17	Y17	Z17	X18	Y18	Z18	X19	Y19	Z19	X20	Y20	Z20	X21	Y21	Z21	X22	Y22	Z22	X23	Y23	Z23	X24	Y24	Z24	X25	Y25	Z25	X26	Y26	Z26	X27	Y27	Z27
70	0.69000000	-880.325134	1257.218994	346.687866	-789.918701	1281.344116	24.265568	-874.687866	1334.677734	177.920654	-768.387512	1215.211670	207.844406	-1009.684387	988.928406	332.672974	-836.207886	999.971619	-69.449089	-835.559082	919.321594	365.465378	-718.460663	828.821075	-91.076775	-856.358582	895.974304	308.225372	-795.190735	858.018555	75.837646	-997.898438	896.492004	196.921539	-981.516479	880.182373	110.484093	-989.707458	888.337189	153.702816	-942.845581	1041.206055	139.604630	-752.962524	1033.109497	193.160507	-880.502869	676.510498	399.093964	-897.171692	438.822876	329.601013	-967.349670	321.302826	390.462646	-1006.471436	114.479530	324.416534	-1051.195679	103.945229	268.052063	-913.843750	46.963757	341.934845	-858.732483	588.352966	-14.011959	-835.900574	404.413055	87.796158	-861.916870	264.341522	33.879452	-900.465454	62.344368	112.698212	-948.148621	45.767262	150.857864	-778.427856	37.392563	136.392731
71	0.70000000	-879.160217	1257.105347	345.505554	-789.242737	1281.508667	22.949984	-873.809265	1334.699219	176.743225	-767.390808	1215.351685	206.467865	-1008.334656	988.711426	331.615143	-835.556213	1000.181824	-71.067291	-834.271454	919.225006	364.009445	-717.771271	829.115173	-93.073074	-854.615967	896.353271	306.860321	-794.162170	858.131592	74.329506	-996.580017	896.138794	196.042862	-980.485229	879.765076	109.629227	-988.532623	887.951935	152.836044	-941.812805	1041.108765	138.384781	-751.820374	1033.283813	191.573059	-877.640686	677.078125	398.485931	-893.648621	439.226807	329.999939	-963.820496	321.656311	391.143372	-1002.108704	114.515144	325.936829	-1046.783447	103.616615	269.337708	-909.375854	47.148510	343.649170	-857.989807	588.242859	-14.875828	-835.682495	404.229095	87.123466	-861.814514	264.095734	33.512539	-900.506714	62.285625	112.641830	-947.937439	45.664822	150.858810	-778.450073	37.399002	136.319931
72	0.71000000	-877.994202	1256.970215	344.351746	-788.570618	1281.616455	21.652367	-872.932251	1334.686401	175.586655	-766.405090	1215.451416	205.114624	-1006.986145	988.478027	330.614563	-834.948364	1000.330566	-72.630127	-832.940796	919.123566	362.577652	-717.208923	829.293823	-95.003986	-852.903381	896.678894	305.515076	-793.170288	858.204956	72.862511	-995.300598	895.772888	195.188446	-979.482483	879.339722	108.802040	-987.391541	887.556305	151.995243	-940.805908	1041.004517	137.186584	-750.702332	1033.415039	190.025314	-875.004395	677.652344	397.920837	-890.102539	439.639191	330.469727	-960.181213	321.987183	391.908539	-997.388062	114.489120	327.581207	-1041.964844	103.155495	270.770874	-904.481262	47.367432	345.514160	-857.262756	588.105774	-15.705936	-835.408020	404.035217	86.490791	-861.669678	263.847290	33.174919	-900.540344	62.226208	112.593140	-947.757324	45.576736	150.879898	-778.467468	37.405647	136.256668
73	0.72000000	-876.829041	1256.817261	343.225037	-787.900818	1281.670410	20.372164	-872.057434	1334.642456	174.449509	-765.430603	1215.513794	203.784485	-1005.641357	988.231689	329.668060	-834.380554	1000.419861	-74.135246	-831.572021	919.018097	361.169250	-716.771210	829.357849	-96.864475	-851.221558	896.953918	304.189545	-792.211426	858.241638	71.437645	-994.058350	895.396423	194.356583	-978.505127	878.908691	108.001076	-986.281738	887.152557	151.178829	-939.826721	1040.895386	136.008179	-749.607483	1033.506226	188.518387	-872.583679	678.237061	397.400818	-886.522827	440.065338	331.010101	-956.414001	322.301422	392.760925	-992.300110	114.410912	329.349548	-1036.733643	102.575462	272.359406	-899.151611	47.627819	347.527313	-856.543396	587.941162	-16.500807	-835.080750	403.833069	85.898323	-861.484131	263.597321	32.866695	-900.564392	62.166813	112.555481	-947.605347	45.502911	150.922943	-778.479736	37.411888	136.204819
74	0.73000000	-875.666504	1256.650146	342.124176	-787.232178	1281.673340	19.108788	-871.185303	1334.570557	173.330399	-764.467529	1215.541870	202.477173	-1004.302551	987.975891	328.772583	-833.849243	1000.451721	-75.580345	-830.171448	918.908875	359.784058	-716.455292	829.308624	-98.649658	-849.571350	897.181274	302.883911	-791.282227	858.244690	70.055817	-992.851257	895.011475	193.545959	-977.549988	878.474243	107.225311	-985.200623	886.742859	150.385635	-938.876587	1040.783325	134.848419	-748.534790	1033.560669	187.053253	-870.364563	678.835327	396.927979	-882.898621	440.510345	331.620270	-952.501343	322.605072	393.702454	-986.837891	114.290611	331.240356	-1031.086914	101.891716	274.108795	-893.381836	47.937168	349.684540	-855.823730	587.748901	-17.259130	-834.704224	403.624084	85.345947	-861.259827	263.346802	32.587696	-900.577026	62.108116	112.532036	-947.478333	45.442970	150.989197	-778.486938	37.417316	136.165909
75	0.74000000	-874.508179	1256.472656	341.047852	-786.563843	1281.628296	17.861607	-870.316589	1334.473877	172.227966	-763.516113	1215.538940	201.192368	-1002.972229	987.714050	327.925232	-833.350952	1000.428284	-76.963226	-828.746277	918.795929	358.422638	-716.258057	829.147980	-100.354855	-847.953064	897.364014	301.598633	-790.379211	858.217285	68.717789	-991.677246	894.620178	192.755722	-976.614136	878.038208	106.474106	-984.145691	886.329193	149.614914	-937.956299	1040.669434	133.706879	-747.483215	1033.581665	185.630737	-868.329712	679.449341	396.504120	-879.218628	440.978973	332.298920	-948.426208	322.904114	394.734039	-980.997131	114.138855	333.250793	-1025.025635	101.120850	276.021851	-887.170227	48.303055	351.980164	-855.096497	587.529480	-17.979834	-834.282043	403.409760	84.833267	-860.998840	263.096649	32.337475	-900.576965	62.050716	112.525719	-947.372925	45.396267	151.079346	-778.489319	37.421722	136.141006
76	0.75000000	-873.355652	1256.288452	339.994812	-785.895325	1281.538208	16.629959	-869.452209	1334.355591	171.140884	-762.576477	1215.508179	199.929718	-1001.652588	987.449402	327.123230	-832.882629	1000.351685	-78.281792	-827.304413	918.679138	357.086197	-716.176086	828.878204	-101.975632	-846.366882	897.505310	300.334381	-789.498901	858.162415	67.424232	-990.533813	894.224182	191.985458	-975.694397	877.602234	105.747261	-983.114105	885.913208	148.866360	-937.066284	1040.554443	132.583878	-746.451721	1033.572388	184.251556	-866.459106	680.080505	396.130707	-875.471619	441.475525	333.044098	-944.172729	323.204407	395.855469	-974.776367	113.966614	335.376587	-1018.553528	100.280533	278.098450	-880.518555	48.732975	354.406799	-854.355164	587.283813	-18.662146	-833.817749	403.191406	84.359558	-860.703430	262.847656	32.115303	-900.563232	61.995159	112.539009	-947.285950	45.361935	151.193512	-778.487549	37.425076	136.130737
77	0.76000000	-872.210327	1256.101074	338.963837	-785.226379	1281.406250	15.413162	-868.592957	1334.218750	170.067902	-761.648926	1215.452881	198.688828	-1000.345703	987.185303	326.364075	-832.441467	1000.223999	-79.534081	-825.854340	918.558197	355.776672	-716.205627	828.502106	-103.507839	-844.812805	897.608337	299.092194	-788.638123	858.083313	66.175735	-989.418457	893.825317	191.235229	-974.788025	877.167664	105.044983	-982.103241	885.496490	148.140106	-936.206360	1040.438599	131.480453	-745.438904	1033.536499	182.916245	-864.730286	680.729187	395.808868	-871.646545	442.003906	333.853271	-939.726318	323.511627	397.065216	-968.177124	113.785042	337.611847	-1011.677856	99.389168	280.335175	-873.432129	49.234215	356.955566	-853.594482	587.013306	-19.305649	-833.314880	402.970276	83.923851	-860.376099	262.600525	31.920202	-900.535400	61.941898	112.573898	-947.214233	45.338913	151.331299	-778.482422	37.427471	136.135132
78	0.77000000	-871.073303	1255.914062	337.953796	-784.557068	1281.235474	14.210512	-867.739807	1334.066284	169.007858	-760.733459	1215.376465	197.469299	-999.053589	986.924744	325.645630	-832.024902	1000.047424	-80.718254	-824.404510	918.432922	354.496643	-716.342773	828.022888	-104.947666	-843.290222	897.676208	297.873413	-787.793579	857.982971	64.972763	-988.328430	893.425049	190.505554	-973.892151	876.735535	104.367874	-981.110291	885.080292	147.436714	-935.375793	1040.321411	130.398300	-744.443665	1033.477417	181.625229	-863.119263	681.395020	395.539307	-867.732971	442.567383	334.723175	-935.074280	323.831146	398.360443	-961.203735	113.605270	339.949158	-1004.408875	98.465561	282.725464	-865.919861	49.813675	359.615936	-852.810669	586.719910	-19.910311	-832.776978	402.747498	83.524902	-860.019470	262.355927	31.750942	-900.493408	61.891308	112.631775	-947.154846	45.326015	151.491898	-778.474731	37.429104	136.153717
79	0.78000000	-869.945679	1255.730469	336.963623	-783.887756	1281.028931	13.021302	-866.893738	1333.901123	167.959625	-759.830139	1215.282104	196.270691	-997.777649	986.670715	324.966034	-831.630798	999.824036	-81.832642	-822.963440	918.303375	353.249298	-716.583374	827.444061	-106.291653	-841.798401	897.712097	296.679657	-786.962158	857.864441	63.815727	-987.260864	893.024658	189.797409	-973.004089	876.306641	103.716934	-980.132477	884.665649	146.757172	-934.573181	1040.202515	129.339737	-743.464539	1033.398682	180.378769	-861.600952	682.076782	395.322296	-863.721130	443.168732	335.649902	-930.206177	324.167938	399.736938	-953.863647	113.438255	342.379547	-996.759705	97.528564	285.259308	-857.993958	50.477707	362.375854	-852.001343	586.405884	-20.476511	-832.207336	402.524078	83.161232	-859.636475	262.114441	31.606073	-900.437561	61.843678	112.713341	-947.105103	45.321968	151.674011	-778.465332	37.430222	136.185394
